<?xml version="1.0" encoding="UTF-8"?>
<svg xmlns="http://www.w3.org/2000/svg" width="900" height="760" viewBox="0 0 900 760">
  <defs>
    <marker id="arrow" markerWidth="10" markerHeight="10" refX="9" refY="3" orient="auto" markerUnits="strokeWidth">
      <path d="M0,0 L0,6 L9,3 z" fill="#94a3b8"/>
    </marker>
    <filter id="shadow" x="-20%" y="-20%" width="140%" height="140%">
      <feDropShadow dx="0" dy="2" stdDeviation="3" flood-color="#000000" flood-opacity="0.05"/>
    </filter>
    <style type="text/css">
      <![CDATA[
        .node rect { stroke-width: 1.5; rx: 8; ry: 8; }
        .source rect { fill: #eff6ff; stroke: #bfdbfe; }
        .source text { fill: #1e40af; }
        .storage rect { fill: #f0fdf4; stroke: #bbf7d0; }
        .storage text { fill: #166534; }
        .nlp rect { fill: #fffbeb; stroke: #fde68a; }
        .nlp text { fill: #92400e; }
        .llm rect { fill: #f5f3ff; stroke: #ddd6fe; }
        .llm text { fill: #5b21b6; }
        .pipeline rect { fill: #ffffff; stroke: #ddd6fe; stroke-dasharray: 4 4; }
        .output rect { fill: #f8fafc; stroke: #cbd5e1; }
        .output text { fill: #334155; }
        .phase-container rect { fill: #faf5ff; stroke: #e9d5ff; stroke-width: 1; rx: 12; ry: 12; }
        .node text { font-family: system-ui, sans-serif; text-anchor: middle; dominant-baseline: central; }
        .label-main { font-weight: 600; font-size: 13px; }
        .label-sub { font-size: 11px; opacity: 0.8; }
        .phase-num { font-size: 10px; font-weight: 700; text-transform: uppercase; opacity: 0.6; }
        .sect { font-size: 11px; font-weight: 600; fill: #94a3b8; text-transform: uppercase; letter-spacing: 0.08em; }
        path.conn { stroke: #cbd5e1; stroke-width: 1.5; fill: none; stroke-linecap: round; stroke-linejoin: round; marker-end: url(#arrow); }
        .loop-path { stroke: #a78bfa; stroke-width: 1.5; stroke-dasharray: 4 3; marker-end: url(#arrow); }
        .loop-lbl { font-size: 10px; fill: #7c3aed; font-style: italic; }
      ]]>
    </style>
  </defs>

  <text class="sect" x="40" y="30">&#1048;&#1089;&#1090;&#1086;&#1095;&#1085;&#1080;&#1082;&#1080; &#1076;&#1072;&#1085;&#1085;&#1099;&#1093;</text>
  <g class="node source" transform="translate(40, 45)" filter="url(#shadow)">
    <rect width="180" height="50"/>
    <text class="label-main" x="90" y="18">banki.ru</text>
    <text class="label-sub" x="90" y="36">parser / scraper</text>
  </g>
  <g class="node source" transform="translate(250, 45)" filter="url(#shadow)">
    <rect width="180" height="50"/>
    <text class="label-main" x="90" y="18">HuggingFace</text>
    <text class="label-sub" x="90" y="36">Russian Bank Reviews</text>
  </g>
  <path d="M130 95 L130 125" class="conn"/>
  <path d="M340 95 L340 125" class="conn"/>

  <text class="sect" x="40" y="125">&#1053;&#1088;&#1072;&#1085;&#1077;&#1085;&#1080;&#1077; &#1076;&#1072;&#1085;&#1085;&#1099;&#1093;</text>
  <g class="node storage" transform="translate(40, 140)" filter="url(#shadow)">
    <rect width="390" height="60"/>
    <text class="label-main" x="195" y="22">PostgreSQL 16</text>
    <text class="label-sub" x="195" y="42">banks, reviews, risks, review_risks</text>
  </g>
  <g class="node storage" transform="translate(460, 140)" filter="url(#shadow)">
    <rect width="320" height="60"/>
    <text class="label-main" x="160" y="22">Qdrant Vector DB</text>
    <text class="label-sub" x="160" y="42">bank_reviews, bank_risks (cosine)</text>
  </g>
  <path d="M430 170 L460 170" class="conn"/>
  <text x="445" y="160" text-anchor="middle" font-size="10" fill="#94a3b8">embeddings</text>

  <text class="sect" x="40" y="235">NLP &#1054;&#1073;&#1088;&#1072;&#1073;&#1086;&#1090;&#1082;&#1072;</text>
  <path d="M235 200 L235 245" class="conn"/>
  <text x="250" y="225" text-anchor="start" font-size="10" fill="#94a3b8">raw text</text>
  <g class="node nlp" transform="translate(105, 245)" filter="url(#shadow)">
    <rect width="260" height="55"/>
    <text class="label-main" x="130" y="20">Embeddings (&#1083;&#1086;&#1082;&#1072;&#1083;&#1100;&#1085;&#1086;)</text>
    <text class="label-sub" x="130" y="40">Qwen3-Embedding-0.6B</text>
  </g>
  <path d="M365 272 C 420 272, 420 170, 520 170" class="conn" style="stroke-dasharray: 5,5"/>
  <text x="440" y="255" text-anchor="middle" font-size="10" fill="#94a3b8">vectors</text>
  <path d="M235 300 L235 340" class="conn"/>
  <g class="node nlp" transform="translate(105, 340)" filter="url(#shadow)">
    <rect width="260" height="55"/>
    <text class="label-main" x="130" y="20">Sentiment Analysis</text>
    <text class="label-sub" x="130" y="40">zero-shot, neg/neu/pos</text>
  </g>
  <path d="M235 395 L235 488" class="conn"/>
  <text x="260" y="440" text-anchor="start" font-size="10" fill="#94a3b8">filtered</text>

  <text class="sect" x="40" y="435">&#1055;&#1088;&#1080;&#1083;&#1086;&#1078;&#1072;&#1085;&#1080;&#1077; &#1080; LLM</text>
  <g class="node output" transform="translate(40, 452)" filter="url(#shadow)">
    <rect width="140" height="32"/>
    <text class="label-main" x="70" y="12">FastAPI</text>
    <text class="label-sub" x="70" y="26">API, &#1086;&#1088;&#1082;&#1077;&#1089;&#1090;&#1088;&#1072;&#1094;&#1080;&#1103;</text>
  </g>
  <g class="phase-container" transform="translate(30, 488)">
    <rect width="840" height="115"/>
  </g>
  <text x="450" y="505" text-anchor="middle" font-size="10" fill="#94a3b8">LLM &#1087;&#1086; LLM_BASE_URL (&#1085;&#1072;&#1087;&#1088;. vLLM localhost:8001/v1)</text>
  <g class="node llm" transform="translate(50, 518)" filter="url(#shadow)">
    <rect width="170" height="60"/>
    <text class="phase-num" x="85" y="15">PHASE 01</text>
    <text class="label-main" x="85" y="35">Generation</text>
    <text class="label-sub" x="85" y="50">&#1054;&#1087;&#1077;&#1088;&#1072;&#1094;./&#1056;&#1077;&#1087;&#1091;&#1090;&#1072;&#1094;./&#1070;&#1088;&#1080;&#1076;.</text>
  </g>
  <g class="node llm" transform="translate(240, 518)" filter="url(#shadow)">
    <rect width="170" height="60"/>
    <text class="phase-num" x="85" y="15">PHASE 02</text>
    <text class="label-main" x="85" y="35">Validation</text>
    <text class="label-sub" x="85" y="50">critic, self-corr</text>
  </g>
  <g class="node llm" transform="translate(430, 518)" filter="url(#shadow)">
    <rect width="190" height="60"/>
    <text class="phase-num" x="95" y="15">PHASE 03</text>
    <text class="label-main" x="95" y="35">Deduplication</text>
    <text class="label-sub" x="95" y="50">Qdrant top-K + LLM</text>
  </g>
  <g class="node llm" transform="translate(640, 518)" filter="url(#shadow)">
    <rect width="190" height="60"/>
    <text class="phase-num" x="95" y="15">PHASE 04</text>
    <text class="label-main" x="95" y="35">Criticality Score</text>
    <text class="label-sub" x="95" y="50">LLM score 1-5</text>
  </g>
  <path d="M220 548 L240 548" class="conn"/>
  <path d="M410 548 L430 548" class="conn"/>
  <path d="M620 548 L640 548" class="conn"/>
  <path class="loop-path" d="M325 578 Q 325 613 240 613 Q 155 613 155 588"/>
  <text class="loop-lbl" x="240" y="628" text-anchor="middle">iterative refinement</text>
  <path d="M620 170 L620 350 L525 350 L525 518" class="conn" style="stroke-dasharray: 5,5"/>
  <text x="635" y="280" text-anchor="start" font-size="10" fill="#94a3b8">semantic</text>
  <text x="635" y="292" text-anchor="start" font-size="10" fill="#94a3b8">search</text>
  <path d="M830 548 Q 860 548 860 400 L 860 170" class="conn"/>
  <text x="865" y="355" text-anchor="start" font-size="9" fill="#166534">&#1088;&#1080;&#1089;&#1082; &#8594; PG</text>
  <text x="865" y="368" text-anchor="start" font-size="9" fill="#166534">&#1086;&#1094;&#1077;&#1085;&#1082;&#1072; 1-5 &#8594; PG</text>
  <text x="875" y="300" text-anchor="start" font-size="10" fill="#94a3b8">write</text>
  <text x="875" y="312" text-anchor="start" font-size="10" fill="#94a3b8">results</text>

  <text class="sect" x="260" y="655">&#1042;&#1080;&#1079;&#1091;&#1072;&#1083;&#1080;&#1079;&#1072;&#1094;&#1080;&#1103;</text>
  <g class="node output" transform="translate(260, 670)" filter="url(#shadow)">
    <rect width="380" height="40"/>
    <text class="label-main" x="190" y="14">FastAPI &#183; Dashboard</text>
    <text class="label-sub" x="190" y="30">SSE, Heatmaps, Trends</text>
  </g>
  <path d="M40 200 L10 200 L10 690 L260 690" class="conn"/>

  <text x="450" y="720" text-anchor="middle" font-size="12" fill="#64748b">&#1056;&#1080;&#1089;. 1. &#1040;&#1088;&#1093;&#1080;&#1090;&#1077;&#1082;&#1090;&#1091;&#1088;&#1072; RiskGrabber, 4-&#1092;&#1072;&#1079;&#1085;&#1099;&#1081; &#1087;&#1072;&#1081;&#1087;&#1083;&#1072;&#1081;&#1085;</text>
</svg>
